name D:\school\WTK\thesis\model\3dpredictsim\Results\debug_batch\Pog_s1_tmt_aCst_d00_k800_ig24_pas.mot
datacolumns 128
datarows 4
range 1.66976464 1.70315993
endheader
time	pelvis_tilt	pelvis_list	pelvis_rotation	pelvis_tx	pelvis_ty	pelvis_tz	hip_flexion_l	hip_adduction_l	hip_rotation_l	hip_flexion_r	hip_adduction_r	hip_rotation_r	knee_angle_l	knee_angle_r	ankle_angle_l	ankle_angle_r	subtalar_angle_l	subtalar_angle_r	tmt_angle_l	tmt_angle_r	mtp_angle_l	mtp_angle_r	lumbar_extension	lumbar_bending	lumbar_rotation	arm_flex_l	arm_add_l	arm_rot_l	arm_flex_r	arm_add_r	arm_rot_r	elbow_flex_l	elbow_flex_r	pro_sup_l	pro_sup_r	glut_med1_l/activation	glut_med2_l/activation	glut_med3_l/activation	glut_min1_l/activation	glut_min2_l/activation	glut_min3_l/activation	semimem_l/activation	semiten_l/activation	bifemlh_l/activation	bifemsh_l/activation	sar_l/activation	add_long_l/activation	add_brev_l/activation	add_mag1_l/activation	add_mag2_l/activation	add_mag3_l/activation	tfl_l/activation	pect_l/activation	grac_l/activation	glut_max1_l/activation	glut_max2_l/activation	glut_max3_l/activation	iliacus_l/activation	psoas_l/activation	quad_fem_l/activation	gem_l/activation	peri_l/activation	rect_fem_l/activation	vas_med_l/activation	vas_int_l/activation	vas_lat_l/activation	med_gas_l/activation	lat_gas_l/activation	soleus_l/activation	tib_post_l/activation	flex_dig_l/activation	flex_hal_l/activation	tib_ant_l/activation	per_brev_l/activation	per_long_l/activation	per_tert_l/activation	ext_dig_l/activation	ext_hal_l/activation	ercspn_l/activation	intobl_l/activation	extobl_l/activation	glut_med1_r/activation	glut_med2_r/activation	glut_med3_r/activation	glut_min1_r/activation	glut_min2_r/activation	glut_min3_r/activation	semimem_r/activation	semiten_r/activation	bifemlh_r/activation	bifemsh_r/activation	sar_r/activation	add_long_r/activation	add_brev_r/activation	add_mag1_r/activation	add_mag2_r/activation	add_mag3_r/activation	tfl_r/activation	pect_r/activation	grac_r/activation	glut_max1_r/activation	glut_max2_r/activation	glut_max3_r/activation	iliacus_r/activation	psoas_r/activation	quad_fem_r/activation	gem_r/activation	peri_r/activation	rect_fem_r/activation	vas_med_r/activation	vas_int_r/activation	vas_lat_r/activation	med_gas_r/activation	lat_gas_r/activation	soleus_r/activation	tib_post_r/activation	flex_dig_r/activation	flex_hal_r/activation	tib_ant_r/activation	per_brev_r/activation	per_long_r/activation	per_tert_r/activation	ext_dig_r/activation	ext_hal_r/activation	ercspn_r/activation	intobl_r/activation	extobl_r/activation	
          1.66976464	         -2.92300290	          2.55167986	         -6.36259194	          2.08720580	          0.85452055	          0.00309678	         31.95684720	          3.34305001	         -3.00789127	        -18.27605413	         -2.40141012	          7.54462830	        -15.31641825	         -9.18356282	          5.91052047	         -0.68477014	         -3.10179769	         11.86186915	          0.04030995	          1.97787248	         -0.09798150	         23.27741327	         -2.01383069	         -1.03253350	          2.13411397	        -10.75399631	        -13.59418615	          6.25904618	          7.86158630	        -13.46938149	         17.53205940	         14.45825991	         40.93441157	         86.51662706	         86.51662706	          0.05927641	          0.05927646	          0.05000020	          0.05927660	          0.05927657	          0.05927521	          0.05623094	          0.05000124	          0.28554484	          0.05000034	          0.05000057	          0.11708917	          0.25838757	          0.12536867	          0.14381398	          0.12664976	          0.05000025	          0.07014713	          0.08586851	          0.05000048	          0.05000046	          0.16011762	          0.05927657	          0.05511542	          0.32881080	          0.20751133	          0.14028484	          0.06002655	          0.18745974	          0.18460938	          0.16163034	          0.05000028	          0.05000024	          0.05198745	          0.05000002	          0.05000050	          0.05000044	          0.61404835	          0.35613025	          0.20275716	          0.38638959	          0.58668158	          0.32521076	          0.05927654	          0.09111968	          0.09288193	          0.24335121	          0.08559515	          0.05305811	          0.29063975	          0.18909134	          0.09393881	          0.05000382	          0.05000037	          0.05000029	          0.07331349	          0.09877403	          0.11785976	          0.13561128	          0.05000924	          0.05000554	          0.05000129	          0.29142205	          0.10455144	          0.05000518	          0.05000335	          0.05000196	          0.05000174	          0.36441003	          0.59276082	          0.05000058	          0.05000124	          0.05000032	          0.23131051	          0.11046263	          0.08339004	          0.07074524	          0.28632957	          0.38525431	          0.27418946	          0.24500003	          0.26024429	          0.33534693	          0.05000002	          0.06521823	          0.15320605	          0.05000014	          0.05000004	          0.05000016	          0.05000020	          0.05004669	          0.05000066	
          1.68089640	         -2.91163437	          2.64969891	         -6.61880199	          2.10443724	          0.85343376	          0.00286977	         31.27822577	          3.73220642	         -2.77273927	        -17.99042133	         -2.71836626	          7.34285576	        -15.57967957	        -11.41180224	          5.27172892	         -1.68557800	         -3.61010250	         12.92482398	          0.02484827	          1.63215080	         -0.06594798	         24.30548146	         -1.78146439	         -1.27280109	          2.22177558	        -11.94017314	        -13.58389305	          6.14564128	          7.58358543	        -13.48966631	         17.71349689	         14.39295395	         42.16267596	         86.51662706	         86.51662706	          0.05000004	          0.05000017	          0.13666057	          0.05000016	          0.05000017	          0.05000021	          0.05000014	          0.05000026	          0.24085857	          0.05000016	          0.05000270	          0.09876549	          0.21795148	          0.33340978	          0.23187929	          0.14403319	          0.05000119	          0.05917402	          0.07280831	          0.10493724	          0.11665653	          0.13506117	          0.05000035	          0.05927414	          0.42995825	          0.17503693	          0.11833106	          0.05927682	          0.20369011	          0.21928352	          0.18007953	          0.05000016	          0.05000077	          0.05000002	          0.05927646	          0.07027515	          0.07027387	          0.53911388	          0.39298848	          0.23701852	          0.32592178	          0.56983241	          0.27431702	          0.05000007	          0.07685992	          0.07834638	          0.20526806	          0.07219997	          0.05927628	          0.24515626	          0.15949957	          0.07923792	          0.05000427	          0.05000067	          0.05000136	          0.06184033	          0.08331661	          0.21024360	          0.22392587	          0.08301339	          0.05927771	          0.05927722	          0.24581623	          0.08819227	          0.05000352	          0.05002645	          0.05008276	          0.05927569	          0.30738177	          0.54138160	          0.05927637	          0.05927625	          0.05000285	          0.19511162	          0.13881757	          0.13881801	          0.13881731	          0.24152043	          0.32496396	          0.23128019	          0.20665884	          0.21951762	          0.28286700	          0.05000003	          0.05501199	          0.15627514	          0.05000012	          0.05000007	          0.05000018	          0.06464934	          0.05927653	          0.05000046	
          1.69202817	         -2.89636963	          2.74606703	         -6.84026701	          2.12188556	          0.85232182	          0.00265374	         30.42227937	          4.05259509	         -2.49461940	        -17.61016871	         -3.01542130	          7.12672927	        -16.06024428	        -13.78419600	          4.82339519	         -2.85822044	         -4.15181291	         13.89786770	         -0.01058798	          1.26415396	         -0.19457214	         25.08321334	         -1.53342673	         -1.51608412	          2.29809146	        -13.10263546	        -13.57865240	          6.10783287	          7.22099427	        -13.51143860	         17.81717684	         14.32746924	         43.35602612	         86.51662706	         86.51662706	          0.27815015	          0.29171984	          0.36988775	          0.36895742	          0.22089120	          0.18787190	          0.07678347	          0.08644950	          0.20316547	          0.07695544	          0.05000394	          0.08330929	          0.18384328	          0.28123302	          0.19559169	          0.15503168	          0.05000040	          0.05000571	          0.06157027	          0.22055466	          0.17943637	          0.13192107	          0.05000051	          0.05000025	          0.36267207	          0.14764478	          0.23625231	          0.05000035	          0.17181386	          0.18496773	          0.15189823	          0.05000121	          0.05000090	          0.05248736	          0.05000005	          0.05927758	          0.05927656	          0.59374418	          0.40305278	          0.19992679	          0.61306920	          0.64053968	          0.31056573	          0.06949664	          0.08422072	          0.06608558	          0.28163329	          0.06090107	          0.05000005	          0.32952905	          0.13453881	          0.06683765	          0.06496392	          0.05000019	          0.05000013	          0.05216273	          0.07027854	          0.17734185	          0.18888302	          0.07002239	          0.05000162	          0.05000092	          0.26695826	          0.08331413	          0.05000066	          0.05000106	          0.05000060	          0.05000042	          0.25927822	          0.50077808	          0.05000009	          0.05000041	          0.05000013	          0.16457766	          0.11709339	          0.11709376	          0.11709316	          0.20372370	          0.27410875	          0.19508600	          0.17431781	          0.18516437	          0.23859985	          0.08642763	          0.15316711	          0.17698993	          0.05000064	          0.15052032	          0.05000164	          0.07892412	          0.05000006	          0.05000008	
          1.70315993	         -2.87923584	          2.83110267	         -7.02158975	          2.13929649	          0.85122218	          0.00240531	         29.49934862	          4.35746339	         -2.22125878	        -17.10677121	         -3.28304344	          6.90592035	        -16.49922562	        -16.32706619	          4.52846460	         -4.08952554	         -4.71999089	         14.78334570	         -0.02278550	          0.87390118	         -0.19915473	         25.33568489	         -1.29447508	         -1.75006758	          2.36319789	        -14.18159886	        -13.57336794	          6.15814860	          6.82192106	        -13.54067473	         17.87104483	         14.22429565	         44.47962298	         86.51662706	         86.51662706	          0.40600972	          0.45799111	          0.53366237	          0.31121953	          0.27258272	          0.42950477	          0.07749427	          0.11979466	          0.17137113	          0.06491337	          0.05000050	          0.07027193	          0.15507293	          0.23722281	          0.24000086	          0.18820753	          0.05000032	          0.05023158	          0.12382260	          0.30753470	          0.23379702	          0.18759049	          0.05000017	          0.05000016	          0.30591582	          0.12453928	          0.27112497	          0.05000004	          0.22343206	          0.25915360	          0.20179615	          0.05000002	          0.05000005	          0.05000000	          0.05000003	          0.05000109	          0.05000029	          0.72142776	          0.33997708	          0.16863927	          0.60551119	          0.64583361	          0.44751467	          0.09495203	          0.07104062	          0.05574354	          0.23755917	          0.05137044	          0.05000014	          0.27795955	          0.11348426	          0.05637802	          0.08910043	          0.05000060	          0.05000090	          0.05000014	          0.05928051	          0.19468734	          0.15933295	          0.15392205	          0.05003417	          0.11859400	          0.22518152	          0.07027638	          0.05000093	          0.05000395	          0.05000284	          0.05000202	          0.21870251	          0.43434531	          0.05000026	          0.05000105	          0.05000025	          0.13882209	          0.09876899	          0.09876928	          0.09876876	          0.17184197	          0.23121213	          0.16455603	          0.14703802	          0.15618729	          0.20126037	          0.18476863	          0.14068920	          0.14929219	          0.22977753	          0.25037943	          0.12507516	          0.10972111	          0.05000004	          0.05000005	
